<?xml version="1.0" encoding="UTF-8"?>
<svg id="Layer_2" data-name="Layer 2" xmlns="http://www.w3.org/2000/svg" viewBox="0 0 9.27 10.17">
  <defs>
    <style>
      .cls-1 {
        fill: #231916;
      }
    </style>
  </defs>
  <g id="_图层_1" data-name="图层 1">
    <path class="cls-1" d="M0,5.29c1.52.02,3.22.12,3.38.17.36.1.63.3.79.62s.24.79.24,1.44l.02,2.66h.39s-.02-2.66-.02-2.66c0-.88.14-1.46.45-1.77.32-.3,2.99-.48,4.02-.49v-.41c-1.03,0-3.7-.11-4.03-.41-.32-.3-.48-.89-.48-1.77l-.02-2.65h-.39s.02,2.66.02,2.66c0,.88-.14,1.48-.45,1.78-.15.15-2.12.37-3.91.44"/>
  </g>
</svg>