<?xml version="1.0" encoding="UTF-8"?>
<svg id="Layer_2" data-name="Layer 2" xmlns="http://www.w3.org/2000/svg" viewBox="0 0 216.87 216.87">
  <defs>
    <style>
      .cls-1 {
        fill: #c2b79c;
      }
    </style>
  </defs>
  <g id="_图层_1" data-name="图层 1">
    <g>
      <path class="cls-1" d="M107.46,79.08c-.01-1.66-.33-4.08-.95-7.26s-1.47-5.79-2.54-7.84c-1.07-2.05-2.34-3.08-3.79-3.08h-.13c-1.45.21-2.51,1.42-3.18,3.64-.66,2.21-1,4.87-1,7.97,0,.08,0,.96.02,2.62.01,1.66.32,4.08.93,7.26.15.79.32,1.54.5,2.27,2.45-.06,7.33-.23,10.07-.48.05-.79.08-1.61.08-2.47,0-.08,0-.96-.02-2.62Z"/>
      <path class="cls-1" d="M111.53,85.97c.19-.19.5-.33.86-.44.14-.37.27-.74.37-1.12-.13-.02-.25-.05-.36-.08-.59-.16-1.02-.5-1.27-1.01-.25-.51-.37-1.29-.37-2.34v-4.3h-.64v4.3c0,1.43-.25,2.38-.76,2.87-.13.12-.88.22-1.97.32-.03.51-.08,1.01-.13,1.49,1.16.08,1.97.19,2.1.31.51.49.76,1.45.76,2.87v.71c.23-.3.45-.6.65-.91.02-1.3.27-2.2.76-2.67Z"/>
      <path class="cls-1" d="M62.02,114.8v-2.74c-1.51-1.21-2.86-2.93-4.04-5.19-.9-1.69-1.7-3.43-2.38-5.22v6.45c.04.2.07.38.08.53.09.89.13,1.41.13,1.58,0,.51-.07.98-.21,1.41v2.73c1.88.03,3.68.15,5.4.35.33.04.67.08,1.02.1Z"/>
      <path class="cls-1" d="M122.49,120.34v4.31h-.63v-4.31c0-1.42-.25-2.38-.77-2.88-.25-.24-2.89-.39-5.78-.48.3,3.5.84,6.8,1.6,9.88.77,3.12,1.75,5.64,2.93,7.56,1.19,1.92,2.53,2.88,4.04,2.88h.06c1.53-.14,2.72-1.24,3.57-3.29.85-2.04,1.36-4.21,1.54-6.5.17-2.29.25-4.18.25-5.66s-.05-3.07-.16-4.65c-3.57.08-5.79.17-5.88.26-.51.5-.77,1.46-.77,2.88Z"/>
      <path class="cls-1" d="M115.23,115.91c-1.54.09-3.14.14-4.47.18v.77c1.36.03,2.99.06,4.55.12,0-.04-.01-.09-.01-.13-.03-.31-.05-.63-.07-.94Z"/>
      <path class="cls-1" d="M96.05,84.67v.66c.27,0,.79,0,1.47.01-.06-.23-.14-.45-.2-.69-.58.01-1.03.02-1.27.02Z"/>
      <polygon class="cls-1" points="143.97 150.71 145.36 150.27 145.36 146.02 143.97 146.47 143.97 150.71"/>
      <path class="cls-1" d="M61.13,96.62c.59.84.89,1.85.89,3.01v9.19c.8,1.36,1.86,2.5,3.16,3.4.84.54,1.5.84,1.96.89.46.05.74.07.84.07.68,0,1.27-.23,1.75-.69.76-.78,1.28-1.75,1.56-2.9.29-1.16.43-2.25.43-3.27,0-2.27-.56-4.38-1.66-6.33-.86-1.48-2.1-2.71-3.7-3.69-1.61-.97-3.67-1.46-6.18-1.46h-1.62c1.12.35,1.98.94,2.57,1.78Z"/>
      <polygon class="cls-1" points="137.29 149.77 136.25 150.12 136.25 152.23 137.29 151.89 137.29 149.77"/>
      <polygon class="cls-1" points="136.25 158.81 137.56 158.39 137.56 156.56 136.25 156.96 136.25 158.81"/>
      <polygon class="cls-1" points="136.25 156.5 137.56 156.1 137.56 154.25 136.25 154.67 136.25 156.5"/>
      <path class="cls-1" d="M99.38,90.22c1.1,2.05,2.36,3.08,3.79,3.08h.09c1.48-.23,2.54-1.45,3.21-3.65.36-1.2.61-2.53.78-3.99-2.69-.19-7.27-.29-9.74-.32.52,1.87,1.13,3.51,1.86,4.88Z"/>
      <polygon class="cls-1" points="123.91 158.67 125.08 158.35 125.08 152.81 123.91 153.19 123.91 158.67"/>
      <polygon class="cls-1" points="118.5 144.18 118.21 144.27 118.21 147.54 118.5 147.45 118.5 144.18"/>
      <path class="cls-1" d="M62.02,110.2v1.86c1.04.85,2.16,1.44,3.36,1.78-1.21-1.08-2.33-2.3-3.36-3.64Z"/>
      <path class="cls-1" d="M135.07,115.88c-2.31,0-4.35,0-6.03,0,.01.07.01.15.02.22.03.37.06.74.08,1.11,1.7-.05,3.7-.09,5.93-.13.01-.2.01-.41.01-.61s0-.39-.01-.58Z"/>
      <path class="cls-1" d="M96.65,99.55c-.18-.35-.37-.68-.57-1-.65-1.06-1.36-1.82-2.12-2.3-.61-.37-1.24-.56-1.91-.56h-.06c-1.53.16-2.72,1.26-3.57,3.28-.85,2.03-1.37,4.18-1.54,6.46-.17,2.28-.25,4.16-.25,5.65,0,1.62.07,3.28.19,4.97,1.94-.05,5.39-.3,5.85-.72.51-.49.76-1.44.76-2.86v-4.31h.64v4.31c0,1.04.12,1.82.37,2.33s.68.85,1.27,1.01c.26.07,2.45.15,4.91.21-.3-3.53-.83-6.85-1.6-9.94-.64-2.59-1.43-4.77-2.37-6.53Z"/>
      <path class="cls-1" d="M100.63,116.08c.02.3.05.59.07.89,2.22-.08,4.55-.12,5.96-.13v-.69c-1.41-.02-3.83-.07-6.04-.13.01.02.01.04.01.06Z"/>
      <path class="cls-1" d="M108.44,0C48.55,0,0,48.55,0,108.44s48.55,108.44,108.44,108.44,108.44-48.55,108.44-108.44S168.32,0,108.44,0ZM153.96,94.8c.6,0,1.37.07,2.29.21,1,.16,1.96.25,2.86.27,1.12-.02,2.29-.1,3.49-.24,1.17-.14,2.23-.22,3.2-.24v.63c-3.18.33-5.66,1.44-7.44,3.35-1.79,1.91-3.34,4.23-4.64,6.98l-1.96,3.86,2.89,6.26c-2.35,0-4.69.01-6.96.01l7.32-14.43c.31-.56.6-1.27.89-2.13.29-.85.34-1.65.14-2.39s-.9-1.24-2.08-1.51v-.63ZM151.55,95.43c-1.32,0-2.45.38-3.39,1.13-.93.76-1.4,1.66-1.4,2.7v16.63h-6.41v-16.63c0-1.04-.47-1.94-1.42-2.7-.94-.75-2.08-1.13-3.4-1.13v-.63h16.02v.63ZM50.82,136.98c1.32,0,2.45-.38,3.38-1.13.94-.76,1.4-1.65,1.4-2.7v-18.8c-.36-.01-.74-.01-1.11-.01l-.15-.85c.61-.52,1.03-1.14,1.26-1.87v-3.52c-.16-.95-.56-2.43-1.19-4.44-.73-2.37-1.42-5.25-2.04-8.62-.48-.13-1-.2-1.55-.2v-.63h1.39c-.01-.07-.03-.15-.04-.23h.84l.07.23h12.43c2.44,0,4.51.53,6.23,1.57-.55-.65-1.16-1.31-1.83-1.98-1.79-1.74-3.71-3.49-5.74-5.23-2.16-1.84-4.19-3.7-6.08-5.59-3.7-3.71-5.56-7.29-5.56-10.75,0-.61.05-1.23.15-1.84.64-2.82,2.36-4.89,5.17-6.2,2.81-1.32,5.97-2.03,9.48-2.16l.74-.03c1.62,0,3.7.16,6.25.48,2.41.29,4.51.44,6.3.44l.07.62c-.96.81-1.43,1.89-1.43,3.24,0,.17.04.71.13,1.6.08.9.49,2.56,1.23,4.99.38,1.22.74,2.57,1.1,4.05l-.06-17.01h-2.61s0-.58,0-.58h.73c1.15,0,2.22-.25,3.23-.74,1-.49,1.84-1.1,2.51-1.85.67-.75,1.1-1.52,1.3-2.33h.56s.02,4.89.02,4.89h4.28s0,.58,0,.58h-4.28s.08,24.17.08,24.17c0,.93.42,1.73,1.26,2.4.84.67,1.85,1,3.03,1v.56s-6.08.02-6.08.02c-1.43,0-2.45-.39-3.04-1.19-.59-.8-.89-1.8-.9-3.02v-2.18s-.24-.72-.24-.72c-.71-2.48-1.62-5.15-2.74-8-1.12-2.86-2.54-5.32-4.27-7.37-1.73-2.04-3.86-3.13-6.39-3.25-2.82.05-4.9.75-6.25,2.1-1.35,1.34-2.08,3.07-2.17,5.19,0,1.76.87,3.6,2.61,5.5s3.89,3.93,6.44,6.09c2.28,1.91,4.52,3.97,6.72,6.16,2.19,2.2,3.99,4.55,5.39,7.05,1.35,2.41,2.02,4.98,2.02,7.73v.44c-.03.6-.1,1.16-.19,1.7.4-1.14.87-2.22,1.41-3.23,1.08-2.04,2.43-3.67,4.03-4.88,1.61-1.22,3.5-1.82,5.67-1.82s3.99.59,5.59,1.79c.01.01.03.02.04.03.29.22.56.45.83.7,1.24,1.11,2.31,2.5,3.2,4.18,1.09,2.04,1.9,4.35,2.43,6.93.51,2.49.78,5.04.8,7.67.56,0,.96.02,1.12.02v.66c-.22,0-.61,0-1.12.01-.03,2.61-.3,5.15-.8,7.6-.53,2.58-1.34,4.89-2.43,6.94-1.08,2.05-2.43,3.68-4.03,4.89-1.61,1.22-3.49,1.82-5.63,1.82s-4.06-.6-5.67-1.82c-1.6-1.21-2.95-2.84-4.03-4.89-1.09-2.05-1.89-4.36-2.43-6.94-.53-2.58-.79-5.25-.79-8s.26-5.38.79-7.96c.04-.2.1-.38.14-.58-.45,1.02-1.02,1.91-1.74,2.65-1.68,1.74-3.65,2.93-5.91,3.57.22-.12.43-.26.63-.41,1.16-.85,1.98-2.07,2.46-3.66.34-1.06.51-2.18.51-3.34,0-.56-.08-1.44-.24-2.64-.16-1.19-.73-2.61-1.7-4.24-.98-1.64-2.32-2.98-4.04-4.04,0,0,0-.01-.02-.01,2.48,2.97,3.73,5.84,3.73,8.62l-.04.88c-.25,2.55-1.06,4.66-2.43,6.31-1.37,1.66-3.19,2.53-5.45,2.6-.75-.03-1.47-.15-2.17-.35.2.19.4.37.61.55.26.22.52.44.77.67.33,0,.67,0,1.01,0,.69,0,1.39-.04,2.11-.11,1.36-.15,2.77-.43,4.24-.84-1.01.58-2.17.87-3.49.87l-.75-.03c2.13,1.05,4.03,2.35,5.71,3.92,1.67,1.56,2.69,3.83,3.05,6.8.04.44.06.88.06,1.3,0,2.75-.88,5.08-2.65,6.98-2.29,2.43-5.83,3.65-10.63,3.65h-14.6v-.63ZM123.91,159.15v1.21l-1.44-.67v-6.97c-2.06.03-6.87.37-7.46.92-.59.58-.88,1.69-.86,3.36l.04,5.05h-.75s-.04-5.04-.04-5.04c-.01-1.22-.16-2.13-.46-2.73-.3-.6-.97-.69-1.5-1.17-1.14-1.02-62.12-.39-65.01-.43v-.06c-1.75.13-3.62.36-3.95.67-.51.49-.75,1.45-.74,2.87l.04,4.31h-.64s-.04-4.3-.04-4.3c0-1.04-.14-1.82-.39-2.33s-.69-.84-1.28-1c-.26-.07-2.5-.33-4.96-.37v-.66c2.9-.11,5.58-.37,5.83-.61.51-.49.75-1.46.74-2.89l-.04-25.76h.64s.04,25.76.04,25.76c.01,1.43.27,2.39.78,2.87.52.49,4.85.68,6.52.67v.07c12.07.14,60.59,1.25,63.46-.73.44-.3.67-.92.78-1.77l-.04-.02v-3.65l-1.26.39c-.11.51-.25.99-.41,1.45-.16.46-.34.88-.54,1.28-.2.39-.41.75-.63,1.07-.22.32-.45.58-.67.8l-.14-.22c.27-.59.5-1.21.69-1.88.19-.67.35-1.37.48-2.11l-1.44.45v-.32l1.5-.47c.05-.28.09-.56.13-.85.04-.29.08-.58.11-.88l1.13.55c-.02.14-.04.27-.06.4-.02.13-.04.26-.06.39l1.18-.37v-1.54l1.09.53v.66l.68-.22.05-.36.43.13.39-.13v-3.22l.97.6v2.3l.07-.03.04-.39.49.24v-.41l.69.38.39-.13v-.66l.79.45v4.49l-.72-.37-.37.11v.7l-.79-.41v-3.88l-.6.2v3.87l.44-.36.09.2-1.57,2.89-.62-1.41.69-.55v-4.33l-.09.03v.09l-1.46.46v4.41c.15.6.38,1.06.7,1.35.33.31,1.96.51,3.69.64l-.08-.08c.21-.59.41-1.2.6-1.82s.37-1.26.53-1.91c-.11-.81-.19-1.68-.23-2.61-.04-.92-.06-1.87-.06-2.82l-2.29.73v-.32l2.29-.73c0-.7,0-1.39.03-2.07l.89.51c-.01.2-.02.42-.03.64-.01.22-.02.44-.03.66l.2-.06v-1.37l.79.43v.67l.18.05v.22l-1.18.38c-.01.51-.02,1.02-.02,1.55s.01,1.04.04,1.55c.15-.78.28-1.61.39-2.48l.77.57c-.12.73-.27,1.44-.42,2.12-.16.68-.33,1.35-.53,1.99.07.45.15.85.25,1.22.1.36.22.66.36.9l.18-1.13.45,1.12-1.03,1.64c-.16-.27-.31-.58-.44-.93-.13-.35-.24-.73-.34-1.16-.34.9-.73,1.75-1.16,2.57,1.37.1,2.78.14,3.67.14v-.06l.12.06s.03,0,.04,0v.02s1.13.54,1.13.54v-3.4l-1.57.5v-.44l1.57-.5v-4.31l1.4.71v3.13l.49-.15.08-.54.99.35v.31l-1.56.5v2.63l1.35.65v7.42l-1.24-.61-1.36.4ZM119.37,148.37l.08.23-2.02,2.48-.56-1.34,2.5-1.37ZM126.73,149.73c.1-.59.19-1.2.27-1.83.08-.63.16-1.29.23-1.99.07-.7.14-1.47.22-2.32l1.52.92c-.22,1.33-.54,2.62-.95,3.86-.41,1.24-.88,2.36-1.42,3.36l-.22-.17c.14-.64.26-1.26.35-1.85ZM140.5,155.64l-1.33.42v3.44l-1.38-.73-1.54.5v2.1l-1.94,2.92-1.25-3.35,1.52.75v-1.88l-2.9.92v-.48l2.9-.92v-1.85l-3.61,1.12-.7,1.24c-.3-.53-.58-1.07-.82-1.62-.25-.56-.48-1.13-.7-1.72-.35.96-.74,1.85-1.17,2.66s-.89,1.53-1.4,2.14l-.21-.25c.45-1.1.85-2.21,1.2-3.33.34-1.11.64-2.24.9-3.38-.15-.58-.29-1.15-.4-1.71-.11-.56-.2-1.12-.27-1.65l.22-.38c.26.67.53,1.31.82,1.94.17-.88.32-1.77.44-2.64.12-.88.23-1.76.33-2.64l-.67.19.12-.54,1.57-.38.06-.6,1.11.31v.38l-1.92.56,1.22.71c-.11,1-.28,2.07-.5,3.2-.22,1.13-.5,2.27-.83,3.41.59,1.13,1.25,2.26,1.98,3.38l-.08.14,3.28-1.01v-1.81l-2.9.92v-.48l2.9-.92v-1.48l-.93.29v-.48l.93-.29v-2.1l-.93.29v-.48l.93-.29v-1.5l-3.88,1.21v-.48l3.88-1.21v-2.29l1.67.87v.88l2.64-.83.08-.6,1.11.31v.4l-3.82,1.21v1.48l1.04-.35v-1.13l1.61.83v4.02l-1.39-.73-1.26.4v1.52l1.31-.42v-.85l1.61.85v1.81l.22-.08.08-.56,1.03.27v.4ZM131.86,153.64v-3.96l1.61.83v4l-1.61-.87ZM148.1,155.17l-2.1,2.33-.99-2.81,1.47.58v-4.86l-2.51.79v8.65l-1.62-.87v-7.27l-2.77.88v-.48l2.77-.88v-4.25l-2.2.69v-.48l2.2-.69v-4.29l1.62.9v2.86l1.39-.44v-1.08l1.62.88v3.73l1.12.61v5.48ZM145.99,144.25v-2.1l1.61.88v2.08l-1.61-.87ZM160.43,138.2c-1.02,0-1.87-.34-2.56-1.01-.68-.67-1.24-1.5-1.68-2.48l-8.16-17.77-1.27,2.53v14.27c0,1.05.47,1.95,1.4,2.7.94.75,2.07,1.13,3.39,1.13v.63h-16.02v-.63c1.32,0,2.46-.38,3.4-1.13.95-.75,1.42-1.65,1.42-2.7v-16.76c-1.87.03-3.64.06-5.29.09-.03,2.53-.29,4.99-.78,7.38-.54,2.58-1.34,4.9-2.43,6.94-1.08,2.05-2.43,3.68-4.03,4.9-1.61,1.21-3.49,1.82-5.64,1.82s-4.05-.61-5.66-1.82c-1.6-1.22-2.95-2.85-4.03-4.9-.69-1.29-1.27-2.7-1.74-4.22v12.55l.47.25v3.55l3.98-1.86v1.53s-5.13,1.42-5.13,1.42v-5.25l.04.02v-14.7c-.02-.08-.03-.15-.05-.23-.51-2.46-.77-4.99-.8-7.61-.68-.01-1.21-.01-1.48-.01v-.66c.27,0,.79-.01,1.48-.03.02-2.62.29-5.17.8-7.65.02-.08.03-.16.05-.23v-18.71c-.23.3-.46.59-.72.88-1.94,2.26-4.52,3.42-7.74,3.51-3.22-.08-5.8-1.25-7.73-3.51s-3.22-5.05-3.87-8.38c-.32-1.66-.47-3.33-.47-4.99s.24-3.75.71-6.24,1.68-4.87,3.62-7.13,4.52-3.42,7.75-3.51c3.22.08,5.81,1.25,7.74,3.51s3.23,5.05,3.89,8.38c.32,1.64.47,3.28.47,4.9,0,1.71-.24,3.81-.73,6.32-.07.38-.17.75-.27,1.13.54.11,1.21.16,2.03.16v.66c-1.03,0-1.81.11-2.4.3-.4,1.06-.94,2.1-1.62,3.11,0,.07,0,.13,0,.2v16.93c.47-1.51,1.05-2.92,1.74-4.21,1.08-2.03,2.43-3.66,4.03-4.88,1.61-1.21,3.5-1.82,5.66-1.82s4.03.61,5.64,1.82c1.54,1.17,2.84,2.74,3.9,4.66.12-.26.23-.55.34-.88l1.26-4.46c-.66,0-1.17-.15-1.53-.45-.36-.29-.64-.82-.83-1.57l-6.54-22.98c-.13-.5-.36-.99-.7-1.46-.34-.48-.78-.88-1.33-1.2-.11-.07-.24-.12-.36-.18,0,.13-.02.25-.02.38v14.88c0,.93.42,1.74,1.26,2.41.84.67,1.86,1.01,3.04,1.01v.56h-14.31v-.56c1.18,0,2.19-.34,3.03-1.01.83-.67,1.25-1.48,1.25-2.41v-20.77c0-.93-.42-1.73-1.25-2.39s-1.84-1-3.03-1v-.59h6.08c2.62,0,3.93,1.42,3.93,4.25v1.08c.32-1.67.94-2.96,1.86-3.87.97-.97,2.04-1.45,3.2-1.45.59,0,1.17.14,1.75.43.57.29.97.77,1.18,1.45.04.22.05.42.05.62,0,.57-.21,1-.62,1.26-.2.13-.39.19-.59.19-.38,0-.76-.22-1.16-.67-.72-.95-1.4-1.43-2.04-1.43-.27,0-.68.19-1.24.58-.56.39-1.09,1.37-1.61,2.95-.37,1.11-.6,2.18-.7,3.21h5.13c.84,0,1.52.25,2.04.74.52.5.98,1.44,1.37,2.84l4.93,17.3,4.76-16.79c.07-.27.11-.53.11-.78,0-.64-.23-1.21-.68-1.69-.61-.68-1.42-1.02-2.44-1.02v-.6h7.82v.6c-.86,0-1.65.26-2.38.79-.72.53-1.25,1.32-1.57,2.38l-8.69,30.48c-.08.27-.18.52-.29.77.91,1.86,1.6,3.92,2.08,6.2.49,2.4.75,4.86.78,7.39,1.64.01,3.42.01,5.29.01v1.09c2.04-.02,4.19-.05,6.41-.08v.82l.42-.83c-.14,0-.28,0-.42,0v-1.01h.93l-.51,1c2.58-.03,5.23-.06,7.9-.09l7.79,16.88c.53,1.11,1.28,2.03,2.26,2.77.99.75,1.95,1.12,2.89,1.12l.06.63h-7.65ZM111.4,140.25v-.32l2.06-.66v-.75l1.15.48v2.74l-.91-.38-2.3.74v-.33l2.06-.65v-1.53l-2.06.66ZM188.27,124.54h-.64s-.04-4.3-.04-4.3c0-1.04-.14-1.82-.39-2.33s-.69-.84-1.28-1c-.26-.07-2.44-.32-4.86-.37-6.61.06-16.36.15-25.98.26l-.43-.92c10.1-.01,20.46-.03,27.18-.04,2.54-.13,4.73-.36,4.95-.57.51-.49.75-1.46.74-2.89l-.04-32.43h.64s.04,32.43.04,32.43c.01,1.43.27,2.39.78,2.87.52.49,4.85.68,6.52.67v.66c-1.66.01-5.99.31-6.5.79-.51.49-.75,1.45-.74,2.87l.04,4.31Z"/>
      <path class="cls-1" d="M110.76,116.86c-.22,0-.43,0-.64-.01v7.83c.18.48.4.93.64,1.38v-9.2Z"/>
      <path class="cls-1" d="M54.2,95.97c-.23-.19-.48-.35-.73-.49.5,1.63,1.1,3.4,1.79,5.29.11.3.22.59.34.88v-2.98c0-1.05-.46-1.94-1.4-2.7Z"/>
      <path class="cls-1" d="M94.07,120.33v4.3h-.64v-4.3c0-1.43-.25-2.39-.76-2.88-.46-.43-3.86-.66-5.81-.71,0,.03,0,.06,0,.09.3,3.56.84,6.89,1.61,10.02.77,3.12,1.75,5.64,2.94,7.56,1.18,1.91,2.53,2.87,4.03,2.87h.06c1.53-.14,2.72-1.23,3.57-3.28.85-2.05,1.37-4.22,1.54-6.51.17-2.29.25-4.17.25-5.66,0-1.59-.06-3.2-.17-4.86-2.9.09-5.62.24-5.87.48-.51.49-.76,1.45-.76,2.88Z"/>
      <path class="cls-1" d="M126.68,103.43c-.42-.49-.85-.89-1.31-1.18.06-.41.23-.71.52-.94-.43-1.02-.89-1.93-1.39-2.74-1.18-1.91-2.53-2.86-4.03-2.86h-.06c-1.53.16-2.72,1.25-3.57,3.28-.86,2.03-1.37,4.18-1.54,6.46-.17,2.28-.25,4.16-.25,5.65s.06,3.17.17,4.81c2.92-.14,5.61-.34,5.86-.57.52-.48.77-1.43.77-2.86v-4.31h.63v4.31c0,1.04.13,1.82.38,2.33.25.52.67.85,1.27,1.01.1.02,1.92.04,4.9.05-.3-3.47-.84-6.72-1.59-9.77-.23-.95-.49-1.84-.76-2.67Z"/>
      <path class="cls-1" d="M110.76,116.09v-10.32c-.24.8-.46,1.63-.64,2.49v7.85c.21,0,.42-.01.64-.02Z"/>
      <path class="cls-1" d="M62.02,132.19c0,1.16-.3,2.17-.89,3.01-.59.84-1.45,1.44-2.57,1.78h2.71c2.24,0,4.13-.42,5.64-1.25,1.52-.84,2.7-1.94,3.54-3.3.84-1.37,1.35-2.62,1.51-3.75.16-1.13.24-2.01.24-2.64,0-1.02-.11-2.05-.33-3.1-.49-1.99-1.26-3.64-2.34-4.95-.85-1.05-1.78-2.03-2.77-2.93-1.67-.02-3.26-.1-4.74-.26v17.39Z"/>
      <path class="cls-1" d="M110.12,116.11c-.3.02-.59.02-.85.03v.7c.26,0,.55.01.85.01v-.74Z"/>
    </g>
  </g>
</svg>