<?xml version="1.0" standalone="no"?><!DOCTYPE svg PUBLIC "-//W3C//DTD SVG 1.1//EN" "http://www.w3.org/Graphics/SVG/1.1/DTD/svg11.dtd"><svg t="1754978756495" class="icon" viewBox="0 0 1024 1024" version="1.1" xmlns="http://www.w3.org/2000/svg" p-id="13965" xmlns:xlink="http://www.w3.org/1999/xlink" width="200" height="200"><path d="M265.888 762.2688l99.69386667-565.40053333c4.27306667-24.2208 17.52533333-44.42346667 35.488-58.46826667l-287.8464 50.75413333c-52.04373333 9.17653333-86.79573333 58.80426667-77.62026667 110.84906667l99.696 565.40266667c9.17653333 52.04373333 58.80426667 86.7936 110.84906667 77.61706666l246.8992-43.536-149.54453334-26.368c-52.04373333-9.17546667-86.79146667-58.8064-77.61493333-110.85013333z" p-id="13966" fill="#dbdbdb"></path><path d="M910.7776 147.44L533.84533333 80.97813333c-52.04373333-9.17866667-101.67253333 25.5712-110.84906666 77.61493334l-99.696 565.40053333c-9.17866667 52.04586667 25.5712 101.67466667 77.61493333 110.8512l376.93653333 66.46506667c52.04373333 9.17653333 101.67253333-25.57333333 110.84906667-77.62026667l99.696-565.40053333c9.17653333-52.04373333-25.57333333-101.67253333-77.6192-110.84906667zM811.73333333 674.19946667v0.05333333c0 9.05493333-16.65813333 15.1616-25.43253333 13.61493333l-306.768-54.20906666c-8.77866667-1.5488-12.3328-10.1664-12.3328-19.22133334v-0.05333333s6.56-59.8144 52.7168-74.10666667c29.22986667-9.02186667 14.93973333 0.336 50.336-7.96586666 35.3568-8.256 43.01333333-11.79733333 43.01333333-11.79733334l5.51893334-32.35733333s-10.84906667-11.888-9.27893334-43.06666667c-8.13866667 0.95573333-8.7488-11.1456-7.8816-18.6464 0.848-7.2256 0.66986667-30.304 9.72906667-26.6272 0.69653333-15.26186667 1.6608-28.97493333 3.61066667-35.99253333 6.76053333-24.62933333 34.71466667-46.6688 71.05066666-42.2368 41.98933333 9.36746667 54.1536 38.48533333 52.0864 63.93706667-0.5696 7.2608-4.4672 20.464-9.02933333 35.03253333 9.76746667-0.34133333 1.74506667 21.2608 0.0352 28.36053333-1.74506667 7.31946667-6.39146667 18.4832-13.65653333 14.81066667-9.2416 29.8272-23.2608 37.31733333-23.2608 37.31733333l-5.3824 32.29866667s6.97813333 5.95733333 37.38026666 25.8048c30.4256 19.8848 28.59093333 7.5456 52.97493334 26.0192 38.48426667 29.21706667 34.57066667 89.03146667 34.57066666 89.03146667z" p-id="13967" fill="#dbdbdb"></path></svg>