<?xml version="1.0" standalone="no"?><!DOCTYPE svg PUBLIC "-//W3C//DTD SVG 1.1//EN" "http://www.w3.org/Graphics/SVG/1.1/DTD/svg11.dtd"><svg t="1754971408360" class="icon" viewBox="0 0 1126 1024" version="1.1" xmlns="http://www.w3.org/2000/svg" p-id="9537" xmlns:xlink="http://www.w3.org/1999/xlink" width="219.921875" height="200"><path d="M942.804049 1024H183.611208a32.358368 32.358368 0 1 1 0-64.716735h759.192841a32.358368 32.358368 0 1 1 0 64.716735zM760.327432 421.888602c-52.326348-81.100719-105.779094-161.382239-156.671844-243.302157a46.387154 46.387154 0 0 0-80.895919-0.204799c-50.48315 82.124718-104.140696 162.303838-156.467043 243.302156-2.764797 4.095996-5.734394 8.191992-8.908791 12.492788-4.300796-3.379197-7.372793-5.631994-10.23999-8.089592L153.403239 261.735162c-18.124782-15.359985-36.044764-18.431982-52.326348-8.908791-16.076784 9.318391-22.937577 27.647972-19.046381 49.663951l96.051104 545.484254c5.836794 33.484767 18.841581 44.543955 52.940747 44.543955h663.960936c34.303966 0 47.411153-11.161589 53.247947-44.339155 31.743968-182.886217 63.692736-365.670034 95.539104-548.556252 3.788796-21.811178-2.355198-36.966363-18.841581-46.489553-16.281584-9.318391-33.484767-7.372793-49.97115 6.348794-18.636781 15.564784-36.966363 31.334369-55.500744 47.103952l-150.22065 127.999872c-3.686396-5.119995-6.451194-8.908791-8.908791-12.799987zM1126.407066 168.244056a65.433535 65.433535 0 0 0-65.740735-66.150334 65.638334 65.638334 0 0 0-65.945534 66.047934c0 37.068763 29.081571 66.150334 65.945534 66.047934A64.819135 64.819135 0 0 0 1126.407066 168.346456zM65.851326 105.984918A65.228735 65.228735 0 0 0 0.008192 172.237652c0 37.068763 28.876771 66.047934 65.945534 66.047934 36.863963 0 65.843134-29.081571 65.843134-66.150334a65.433535 65.433535 0 0 0-65.945534-66.150334zM631.303561 66.253758A65.843134 65.843134 0 0 0 565.460427 0.001024a65.740734 65.740734 0 1 0-0.8192 131.583868 65.535934 65.535934 0 0 0 66.559934-65.331134z" p-id="9538" fill="#e6e6e6"></path></svg>