<?xml version="1.0" standalone="no"?><!DOCTYPE svg PUBLIC "-//W3C//DTD SVG 1.1//EN" "http://www.w3.org/Graphics/SVG/1.1/DTD/svg11.dtd"><svg t="1755149197455" class="icon" viewBox="0 0 1024 1024" version="1.1" xmlns="http://www.w3.org/2000/svg" p-id="7221" xmlns:xlink="http://www.w3.org/1999/xlink" width="200" height="200"><path d="M589.824 501.76L998.4 93.184c20.48-20.48 20.48-54.784 0-75.264l-2.048-2.048c-20.48-20.48-54.784-20.48-75.264 0L512.512 424.96 103.936 15.36c-20.48-20.48-54.784-20.48-75.264 0l-2.56 2.56C5.12 38.4 5.12 72.192 26.112 93.184L434.688 501.76 26.112 910.336c-20.48 20.48-20.48 54.784 0 75.264l2.048 2.048c20.48 20.48 54.784 20.48 75.264 0l408.576-408.576 408.576 408.576c20.48 20.48 54.784 20.48 75.264 0l2.048-2.048c20.48-20.48 20.48-54.784 0-75.264L589.824 501.76z" fill="#999999" p-id="7222"></path></svg>