<?xml version="1.0" standalone="no"?><!DOCTYPE svg PUBLIC "-//W3C//DTD SVG 1.1//EN" "http://www.w3.org/Graphics/SVG/1.1/DTD/svg11.dtd"><svg t="1754971389948" class="icon" viewBox="0 0 1024 1024" version="1.1" xmlns="http://www.w3.org/2000/svg" p-id="8465" xmlns:xlink="http://www.w3.org/1999/xlink" width="200" height="200"><path d="M157.538462 55.138462v31.507692h712.861538l-11.815385-31.507692zM157.538462 110.276923v31.507692h728.615384l-11.815384-31.507692zM894.030769 161.476923H157.538462v31.507692h748.307692z" fill="#BCB8B8" p-id="8466"></path><path d="M192.984615 200.861538C145.723077 200.861538 106.338462 161.476923 106.338462 118.153846S145.723077 35.446154 192.984615 35.446154h677.415385l-11.815385-35.446154H192.984615C129.969231 0 78.769231 51.2 78.769231 118.153846s51.2 118.153846 114.215384 118.153846H945.230769l-11.815384-35.446154H192.984615z" fill="#BCB8B8" p-id="8467"></path><path d="M512 236.307692h433.230769v787.692308H216.615385C161.476923 1020.061538 118.153846 980.676923 118.153846 933.415385v-748.307693C118.153846 236.307692 133.907692 236.307692 192.984615 236.307692H512zM118.153846 153.6v7.876923-7.876923z m393.846154 94.523077H275.692308V630.153846l118.153846-133.907692 118.153846 133.907692V248.123077z" fill="#BCB8B8" p-id="8468"></path><path d="M196.923077 208.738462h-3.938462C129.969231 208.738462 78.769231 169.353846 78.769231 118.153846v775.876923c0 47.261538 47.261538 86.646154 102.4 90.584616H196.923077V208.738462z" fill="#BCB8B8" p-id="8469"></path></svg>