<?xml version="1.0" encoding="UTF-8"?>
<svg id="Layer_2" data-name="Layer 2" xmlns="http://www.w3.org/2000/svg" viewBox="0 0 160.99 109.38">
  <defs>
    <style>
      .cls-1 {
        fill: #231916;
      }
    </style>
  </defs>
  <g id="_图层_1" data-name="图层 1">
    <path class="cls-1" d="M40.96,32.95c-2.2-2.19-4.44-4.25-6.72-6.16-2.55-2.16-4.7-4.19-6.44-6.09s-2.61-3.74-2.61-5.5c.09-2.12.82-3.85,2.17-5.19,1.35-1.35,3.43-2.05,6.25-2.1,2.53.12,4.66,1.21,6.39,3.25,1.73,2.05,3.15,4.51,4.27,7.37,1.12,2.85,2.03,5.52,2.74,8l.52,1.62h.88c-.71-3.83-1.47-7.05-2.28-9.68-.74-2.43-1.15-4.09-1.23-4.99-.09-.89-.13-1.43-.13-1.6,0-1.35.47-2.43,1.43-3.24l-.07-.62c-1.79,0-3.89-.15-6.3-.44-2.55-.32-4.63-.48-6.25-.48l-.74.03c-3.51.13-6.67.84-9.48,2.16-2.81,1.31-4.53,3.38-5.17,6.2-.1.61-.15,1.23-.15,1.84,0,3.46,1.86,7.04,5.56,10.75,1.89,1.89,3.92,3.75,6.08,5.59,2.03,1.74,3.95,3.49,5.74,5.23.67.67,1.28,1.33,1.83,1.98.01,0,.01.01.02.01,1.72,1.06,3.06,2.4,4.04,4.04.97,1.63,1.54,3.05,1.7,4.24.16,1.2.24,2.08.24,2.64,0,1.16-.17,2.28-.51,3.34-.48,1.59-1.3,2.81-2.46,3.66-.2.15-.41.29-.63.41,2.26-.64,4.23-1.83,5.91-3.57,1.68-1.75,2.62-4.24,2.81-7.48v-.44c0-2.75-.67-5.32-2.02-7.73-1.4-2.5-3.2-4.85-5.39-7.05ZM20.77,45.87c-.69-1.89-1.29-3.66-1.79-5.29-.06-.17-.11-.33-.16-.5l-.23-.77-.07-.23h-.84c.01.08.03.16.04.23.05.28.1.56.16.83.62,3.37,1.31,6.25,2.04,8.62.63,2.01,1.03,3.49,1.19,4.44v-6.45c-.12-.29-.23-.58-.34-.88ZM31.5,59.49c-.21-.18-.41-.36-.61-.55-1.2-.34-2.32-.93-3.36-1.78v2.74c1.48.16,3.07.24,4.74.26-.25-.23-.51-.45-.77-.67Z"/>
    <path class="cls-1" d="M21.11,56.72v2.73c-.36-.01-.74-.01-1.11-.01l-.15-.85c.61-.52,1.03-1.14,1.26-1.87Z"/>
    <path class="cls-1" d="M44.56,5.52v-.59s.72,0,.72,0c1.15,0,2.22-.25,3.23-.74s1.84-1.1,2.51-1.85S52.12.81,52.32,0h.56s.02,4.89.02,4.89h4.28s0,.58,0,.58h-4.28s.08,24.17.08,24.17c0,.93.42,1.73,1.26,2.4s1.85,1,3.03,1v.56s-6.08.02-6.08.02c-1.43,0-2.45-.39-3.04-1.19s-.89-1.8-.9-3.02l-.08-23.91h-2.61Z"/>
    <path class="cls-1" d="M67.17,39.03c-3.22-.08-5.8-1.25-7.73-3.51s-3.22-5.05-3.87-8.38c-.32-1.66-.47-3.33-.47-4.99s.24-3.75.71-6.24,1.68-4.87,3.62-7.13,4.52-3.42,7.75-3.51c3.22.08,5.81,1.25,7.75,3.51s3.24,5.05,3.89,8.38c.32,1.64.47,3.28.47,4.9,0,1.71-.24,3.81-.73,6.32s-1.7,4.89-3.64,7.14-4.52,3.42-7.75,3.51ZM68.78,38.4c1.48-.23,2.54-1.45,3.21-3.65s1-4.85,1-7.95c0-.08,0-.96-.02-2.62s-.33-4.08-.95-7.26-1.47-5.79-2.54-7.84-2.34-3.08-3.79-3.08h-.13c-1.45.21-2.51,1.42-3.18,3.64s-1,4.87-1,7.97c0,.08,0,.96.02,2.62s.32,4.08.93,7.26,1.46,5.79,2.56,7.84,2.36,3.08,3.79,3.08h.09ZM75.63,86.01h.64v-14.85c-.24-.44-.46-.9-.64-1.38v16.23ZM75.63,61.21v.74c.21.01.42.01.64.01v-.77c-.22.01-.43.02-.64.02ZM77.91,29.43c-.59-.16-1.02-.5-1.27-1.01-.25-.51-.37-1.29-.37-2.34v-4.3h-.64v4.3c0,1.43-.25,2.38-.76,2.87-.52.48-11.64.82-13.31.82v.66c1.67,0,12.79.15,13.31.64.51.49.76,1.45.76,2.87v19.42c.18-.86.4-1.69.64-2.49v-16.93c0-1.42.25-2.38.77-2.87.51-.49,1.6-.74,3.26-.74v-.66c-1,0-1.8-.08-2.39-.24Z"/>
    <path class="cls-1" d="M91.84,32.5h-14.31v-.56c1.18,0,2.19-.34,3.03-1.01s1.25-1.48,1.25-2.41V7.76c0-.93-.42-1.73-1.25-2.39s-1.84-1-3.03-1v-.59h6.08c2.62,0,3.93,1.42,3.93,4.25v1.08c.32-1.67.94-2.96,1.86-3.87.97-.97,2.04-1.45,3.2-1.45.59,0,1.17.14,1.75.43s.97.77,1.18,1.45c.04.22.05.42.05.62,0,.57-.21,1-.62,1.26-.2.13-.39.19-.59.19-.38,0-.76-.22-1.16-.67-.72-.95-1.4-1.43-2.04-1.43-.27,0-.68.19-1.24.58s-1.09,1.37-1.61,2.95-.78,3.08-.78,4.49v14.88c0,.93.42,1.74,1.26,2.41s1.86,1.01,3.04,1.01v.56Z"/>
    <path class="cls-1" d="M102.83,12.36v.6c1.02,0,1.83.34,2.44,1.02.45.48.68,1.05.68,1.69,0,.25-.04.51-.11.78l-4.76,16.79-4.93-17.3c-.39-1.4-.85-2.34-1.37-2.84-.52-.49-1.2-.74-2.04-.74h-6.78v.6c.75,0,1.4.16,1.95.48.55.32.99.72,1.33,1.2.34.47.57.96.7,1.46l6.54,22.98c.19.75.47,1.28.83,1.57.36.3.87.45,1.53.45l-1.26,4.46c-.35,1.1-.77,1.82-1.29,2.17-.18.12-.38.2-.59.23l-.3.02c-.7,0-1.38-.37-2.04-1.1-.49-.47-.93-.7-1.32-.7-.22,0-.42.07-.62.21-.3.23-.47.54-.53.95.76.48,1.47,1.24,2.12,2.3.2.32.39.65.57,1,.06.01.12.01.18.01.99-.02,1.86-.43,2.62-1.22.29-.3.56-.62.78-.97.37-.56.65-1.18.85-1.85l8.69-30.48c.32-1.06.85-1.85,1.57-2.38.73-.53,1.52-.79,2.38-.79v-.6h-7.82Z"/>
    <path class="cls-1" d="M35.39,60.06l.75.03c1.32,0,2.48-.29,3.49-.87-1.47.41-2.88.69-4.24.84ZM44.15,70.78c-.36-2.97-1.38-5.24-3.05-6.8-1.68-1.57-3.58-2.87-5.71-3.92-.72.07-1.42.11-2.11.11-.34,0-.68,0-1.01,0,.99.9,1.92,1.88,2.77,2.93,1.08,1.31,1.85,2.96,2.34,4.95.22,1.05.33,2.08.33,3.1,0,.63-.08,1.51-.24,2.64-.16,1.13-.67,2.38-1.51,3.75-.84,1.36-2.02,2.46-3.54,3.3-1.51.83-3.4,1.25-5.64,1.25h-2.71c1.12-.34,1.98-.94,2.57-1.78.59-.84.89-1.85.89-3.01v-17.39c-.35-.02-.69-.06-1.02-.1-1.72-.2-3.52-.32-5.4-.35v18.8c0,1.05-.46,1.94-1.4,2.7-.93.75-2.06,1.13-3.38,1.13v.63h14.6c4.8,0,8.34-1.22,10.63-3.65,1.77-1.9,2.65-4.23,2.65-6.98,0-.42-.02-.86-.06-1.3ZM21.11,56.72c.14-.43.21-.9.21-1.41,0-.17-.04-.69-.13-1.58-.01-.15-.04-.33-.08-.53v3.52ZM18.98,40.58c.25.14.5.3.73.49.94.76,1.4,1.65,1.4,2.7v2.98c.68,1.79,1.48,3.53,2.38,5.22,1.18,2.26,2.53,3.98,4.04,5.19v-1.86c1.03,1.34,2.15,2.56,3.36,3.64.7.2,1.42.32,2.17.35,2.26-.07,4.08-.94,5.45-2.6,1.37-1.65,2.18-3.76,2.43-6.31l.04-.88c0-2.78-1.25-5.65-3.73-8.62-1.72-1.04-3.79-1.57-6.23-1.57h-14.69v.63c.55,0,1.07.07,1.55.2.39.1.75.25,1.1.44ZM25.69,39.94c2.51,0,4.57.49,6.18,1.46,1.6.98,2.84,2.21,3.7,3.69,1.1,1.95,1.66,4.06,1.66,6.33,0,1.02-.14,2.11-.43,3.27-.28,1.15-.8,2.12-1.56,2.9-.48.46-1.07.69-1.75.69-.1,0-.38-.02-.84-.07-.46-.05-1.12-.35-1.96-.89-1.3-.9-2.36-2.04-3.16-3.4v-9.19c0-1.16-.3-2.17-.89-3.01-.59-.84-1.45-1.43-2.57-1.78h1.62Z"/>
    <path class="cls-1" d="M66.15,61.17s0-.04-.01-.06c-2.46-.06-4.65-.14-4.91-.21-.59-.16-1.02-.5-1.27-1.01s-.37-1.29-.37-2.33v-4.31h-.64v4.31c0,1.42-.25,2.37-.76,2.86-.52.48-4.84.73-6.51.73v.66c1.67,0,5.99.24,6.51.73.51.49.76,1.45.76,2.88v4.3h.64v-4.3c0-1.43.25-2.39.76-2.88.25-.24,2.97-.39,5.87-.48-.02-.3-.05-.59-.07-.89ZM66.39,66.92c0,1.49-.08,3.37-.25,5.66-.17,2.29-.69,4.46-1.54,6.51-.85,2.05-2.04,3.14-3.57,3.28h-.06c-1.5,0-2.85-.96-4.03-2.87-1.19-1.92-2.17-4.44-2.94-7.56-.77-3.13-1.31-6.46-1.61-10.02-.16-1.97-.24-3.88-.24-5.75,0-1.49.08-3.37.25-5.65.17-2.28.69-4.43,1.54-6.46.85-2.02,2.04-3.12,3.57-3.28h.06c.67,0,1.3.19,1.91.56.76.48,1.47,1.24,2.12,2.3.2.32.39.65.57,1,.94,1.76,1.73,3.94,2.37,6.53.77,3.09,1.3,6.41,1.6,9.94,2.21.06,4.63.11,6.04.13-.02-2.63-.29-5.18-.8-7.67-.53-2.58-1.34-4.89-2.43-6.93-.89-1.68-1.96-3.07-3.2-4.18-.27-.25-.54-.48-.83-.7-.01-.01-.03-.02-.04-.03-1.6-1.2-3.47-1.79-5.59-1.79s-4.06.6-5.67,1.82c-1.6,1.21-2.95,2.84-4.03,4.88-1.09,2.04-1.89,4.35-2.43,6.93-.53,2.58-.79,5.23-.79,7.96s.26,5.42.79,8c.54,2.58,1.34,4.89,2.43,6.94,1.08,2.05,2.43,3.68,4.03,4.89,1.61,1.22,3.5,1.82,5.67,1.82s4.02-.6,5.63-1.82c1.6-1.21,2.95-2.84,4.03-4.89,1.09-2.05,1.9-4.36,2.43-6.94.5-2.45.77-4.99.8-7.6-1.41,0-3.74.05-5.96.13.11,1.66.17,3.27.17,4.86ZM59.96,59.89c-.25-.51-.37-1.29-.37-2.33v-4.31h-.64v4.31c0,1.42-.25,2.37-.76,2.86-.52.48-4.84.73-6.51.73v.66c1.67,0,5.99.24,6.51.73.51.49.76,1.45.76,2.88v4.3h.64v-4.3c0-1.43.25-2.39.76-2.88.25-.24,2.97-.39,5.87-.48-.02-.3-.05-.59-.07-.89,0-.02,0-.04-.01-.06-2.46-.06-4.65-.14-4.91-.21-.59-.16-1.02-.5-1.27-1.01ZM72.18,61.24v.69c.51-.01.9-.01,1.12-.01v-.66c-.16,0-.56-.01-1.12-.02ZM66.14,61.11c-2.46-.06-4.65-.14-4.91-.21-.59-.16-1.02-.5-1.27-1.01s-.37-1.29-.37-2.33v-4.31h-.64v4.31c0,1.42-.25,2.37-.76,2.86-.52.48-4.84.73-6.51.73v.66c1.67,0,5.99.24,6.51.73.51.49.76,1.45.76,2.88v4.3h.64v-4.3c0-1.43.25-2.39.76-2.88.25-.24,2.97-.39,5.87-.48-.02-.3-.05-.59-.07-.89,0-.02,0-.04-.01-.06ZM72.18,61.24v.69c.51-.01.9-.01,1.12-.01v-.66c-.16,0-.56-.01-1.12-.02ZM66.14,61.11c-2.46-.06-4.65-.14-4.91-.21-.59-.16-1.02-.5-1.27-1.01s-.37-1.29-.37-2.33v-4.31h-.64v4.31c0,1.42-.25,2.37-.76,2.86-.52.48-4.84.73-6.51.73v.66c1.67,0,5.99.24,6.51.73.51.49.76,1.45.76,2.88v4.3h.64v-4.3c0-1.43.25-2.39.76-2.88.25-.24,2.97-.39,5.87-.48-.02-.3-.05-.59-.07-.89,0-.02,0-.04-.01-.06Z"/>
    <path class="cls-1" d="M94.57,61.19c-.01-.07-.01-.15-.02-.22-2.98-.01-4.8-.03-4.9-.05-.6-.16-1.02-.49-1.27-1.01-.25-.51-.38-1.29-.38-2.33v-4.31h-.63v4.31c0,1.43-.25,2.38-.77,2.86-.25.23-2.94.43-5.86.57.02.31.04.63.07.94,0,.04.01.09.01.13,2.89.09,5.53.24,5.78.48.52.5.77,1.46.77,2.88v4.31h.63v-4.31c0-1.42.26-2.38.77-2.88.09-.09,2.31-.18,5.88-.26-.02-.37-.05-.74-.08-1.11ZM94.65,62.3c.11,1.58.16,3.13.16,4.65s-.08,3.37-.25,5.66c-.18,2.29-.69,4.46-1.54,6.5-.85,2.05-2.04,3.15-3.57,3.29h-.06c-1.51,0-2.85-.96-4.04-2.88-1.18-1.92-2.16-4.44-2.93-7.56-.76-3.08-1.3-6.38-1.6-9.88-1.56-.06-3.19-.09-4.55-.12v10.31c.47,1.52,1.05,2.93,1.74,4.22,1.08,2.05,2.43,3.68,4.03,4.9,1.61,1.21,3.5,1.82,5.66,1.82s4.03-.61,5.64-1.82c1.6-1.22,2.95-2.85,4.03-4.9,1.09-2.04,1.89-4.36,2.43-6.94.49-2.39.75-4.85.78-7.38-2.23.04-4.23.08-5.93.13ZM75.58,69.55c.02.08.03.15.05.23v-7.83c-.3,0-.59-.01-.85-.01.03,2.62.29,5.15.8,7.61ZM75.58,53.59c-.51,2.48-.78,5.03-.8,7.65.26-.01.55-.01.85-.03v-7.85c-.02.07-.03.15-.05.23ZM99.8,53.59c-.54-2.58-1.34-4.89-2.43-6.93-1.08-2.03-2.43-3.66-4.03-4.88-1.61-1.21-3.49-1.82-5.64-1.82s-4.05.61-5.66,1.82c-1.6,1.22-2.95,2.85-4.03,4.88-.69,1.29-1.27,2.7-1.74,4.21v10.32c1.33-.04,2.93-.09,4.47-.18-.11-1.64-.17-3.25-.17-4.81s.08-3.37.25-5.65c.17-2.28.68-4.43,1.54-6.46.85-2.03,2.04-3.12,3.57-3.28h.06c1.5,0,2.85.95,4.03,2.86,1.19,1.9,2.17,4.41,2.94,7.53.75,3.05,1.29,6.3,1.59,9.77,1.68,0,3.72,0,6.03,0-.03-2.53-.29-4.99-.78-7.39ZM94.57,61.19c-.01-.07-.01-.15-.02-.22-2.98-.01-4.8-.03-4.9-.05-.6-.16-1.02-.49-1.27-1.01-.25-.51-.38-1.29-.38-2.33v-4.31h-.63v4.31c0,1.43-.25,2.38-.77,2.86-.25.23-2.94.43-5.86.57.02.31.04.63.07.94,0,.04.01.09.01.13,2.89.09,5.53.24,5.78.48.52.5.77,1.46.77,2.88v4.31h.63v-4.31c0-1.42.26-2.38.77-2.88.09-.09,2.31-.18,5.88-.26-.02-.37-.05-.74-.08-1.11ZM73.3,61.27v.66c.27,0,.8,0,1.48.01v-.7c-.69.02-1.21.03-1.48.03ZM94.57,61.19c-.01-.07-.01-.15-.02-.22-2.98-.01-4.8-.03-4.9-.05-.6-.16-1.02-.49-1.27-1.01-.25-.51-.38-1.29-.38-2.33v-4.31h-.63v4.31c0,1.43-.25,2.38-.77,2.86-.25.23-2.94.43-5.86.57.02.31.04.63.07.94,0,.04.01.09.01.13,2.89.09,5.53.24,5.78.48.52.5.77,1.46.77,2.88v4.31h.63v-4.31c0-1.42.26-2.38.77-2.88.09-.09,2.31-.18,5.88-.26-.02-.37-.05-.74-.08-1.11ZM94.57,61.19c-.01-.07-.01-.15-.02-.22-2.98-.01-4.8-.03-4.9-.05-.6-.16-1.02-.49-1.27-1.01-.25-.51-.38-1.29-.38-2.33v-4.31h-.63v4.31c0,1.43-.25,2.38-.77,2.86-.25.23-2.94.43-5.86.57.02.31.04.63.07.94,0,.04.01.09.01.13,2.89.09,5.53.24,5.78.48.52.5.77,1.46.77,2.88v4.31h.63v-4.31c0-1.42.26-2.38.77-2.88.09-.09,2.31-.18,5.88-.26-.02-.37-.05-.74-.08-1.11ZM100.58,60.98c.01.19.01.39.01.58,0,.2,0,.41-.01.61,1.65-.03,3.42-.06,5.29-.09v-1.09c-1.87,0-3.65,0-5.29-.01ZM94.55,60.97c-2.98-.01-4.8-.03-4.9-.05-.6-.16-1.02-.49-1.27-1.01-.25-.51-.38-1.29-.38-2.33v-4.31h-.63v4.31c0,1.43-.25,2.38-.77,2.86-.25.23-2.94.43-5.86.57.02.31.04.63.07.94,0,.04.01.09.01.13,2.89.09,5.53.24,5.78.48.52.5.77,1.46.77,2.88v4.31h.63v-4.31c0-1.42.26-2.38.77-2.88.09-.09,2.31-.18,5.88-.26-.02-.37-.05-.74-.08-1.11-.01-.07-.01-.15-.02-.22ZM94.57,61.19c-.01-.07-.01-.15-.02-.22-2.98-.01-4.8-.03-4.9-.05-.6-.16-1.02-.49-1.27-1.01-.25-.51-.38-1.29-.38-2.33v-4.31h-.63v4.31c0,1.43-.25,2.38-.77,2.86-.25.23-2.94.43-5.86.57.02.31.04.63.07.94,0,.04.01.09.01.13,2.89.09,5.53.24,5.78.48.52.5.77,1.46.77,2.88v4.31h.63v-4.31c0-1.42.26-2.38.77-2.88.09-.09,2.31-.18,5.88-.26-.02-.37-.05-.74-.08-1.11ZM120.17,60.98l.43.92c16.46-.19,33.31-.32,34.16-.32v-.66c-.52,0-17.91.04-34.59.06ZM112.28,60.99v1.01c.14,0,.28-.01.42-.01l.51-1h-.93Z"/>
    <path class="cls-1" d="M101.05,39.89v.63c1.32,0,2.46.38,3.4,1.13.95.76,1.42,1.66,1.42,2.7v16.63h6.41v-16.63c0-1.04.47-1.94,1.4-2.7.94-.75,2.07-1.13,3.39-1.13v-.63h-16.02ZM133.54,82.66c-.94,0-1.9-.37-2.89-1.12-.98-.74-1.73-1.66-2.26-2.77l-7.79-16.88c-2.67.03-5.32.06-7.9.09l-.42.83v-.82c-2.22.03-4.37.06-6.41.08v16.76c0,1.05-.47,1.95-1.42,2.7-.94.75-2.08,1.13-3.4,1.13v.63h16.02v-.63c-1.32,0-2.45-.38-3.39-1.13-.93-.75-1.4-1.65-1.4-2.7v-14.27l1.27-2.53,8.16,17.77c.44.98,1,1.81,1.68,2.48.69.67,1.54,1.01,2.56,1.01h7.65l-.06-.63ZM120.53,46.55l-7.32,14.43c2.27,0,4.61-.01,6.96-.01l-2.89-6.26,1.96-3.86c1.3-2.75,2.85-5.07,4.64-6.98,1.78-1.91,4.26-3.02,7.44-3.35v-.63c-.97.02-2.03.1-3.2.24-1.2.14-2.37.22-3.49.24-.9-.02-1.86-.11-2.86-.27-.92-.14-1.69-.21-2.29-.21v.63c1.18.27,1.88.77,2.08,1.51s.15,1.54-.14,2.39c-.29.86-.58,1.57-.89,2.13Z"/>
    <path class="cls-1" d="M79.81,89.51v.66l.68-.22.05-.36.72.22v.22l-1.46.46v4.58l-1.09-.59v-3.65l-1.26.39c-.11.51-.25.99-.41,1.45-.16.46-.34.88-.54,1.28-.2.39-.41.75-.63,1.07-.22.32-.45.58-.67.8l-.14-.22c.27-.59.5-1.21.69-1.88s.35-1.37.48-2.11l-1.44.45v-.32l1.5-.47c.05-.28.09-.56.13-.85.04-.29.08-.58.11-.88l1.13.55c-.02.14-.04.27-.06.4-.02.13-.04.26-.06.39l1.18-.37v-1.54l1.09.53ZM76.74,85.07v3.55l3.98-1.86v1.53s-5.13,1.42-5.13,1.42v-5.25l1.15.61ZM80.12,84.1v2.74l-.91-.38-2.3.74v-.33l2.06-.65v-1.53l-2.06.66v-.32l2.06-.66v-.75l1.15.48Z"/>
    <path class="cls-1" d="M82.93,89.1v-.41l.69.38.39-.13v-.66l.79.45v4.49l-.72-.37-.37.11v.7l-.79-.41v-3.88l-.6.2v3.87l.44-.36.09.2-1.57,2.89-.62-1.41.69-.55v-4.33l-.55.18v-.31l.55-.18v-3.22l.97.6v2.3l.07-.03.04-.39.49.24ZM84.96,93.7l-2.02,2.48-.56-1.34,2.5-1.37.08.23ZM87.28,94.78l-1.03,1.64c-.16-.27-.31-.58-.44-.93-.13-.35-.24-.73-.34-1.16-.35.92-.75,1.81-1.2,2.65l-.15-.17c.21-.59.41-1.2.6-1.82s.37-1.25.53-1.91c-.11-.81-.19-1.68-.23-2.61s-.06-1.87-.06-2.82l-2.29.73v-.32l2.29-.73c0-.7,0-1.39.03-2.07l.89.51c-.01.2-.02.42-.03.64-.01.22-.02.44-.03.66l.2-.06v-1.37l.79.43v.67l.18.05v.22l-1.18.38c-.01.51-.02,1.02-.02,1.55s.01,1.04.04,1.55c.15-.78.28-1.61.39-2.48l.77.57c-.12.73-.27,1.44-.42,2.12-.16.68-.33,1.35-.53,1.99.07.45.15.85.25,1.22.1.36.22.66.36.9l.18-1.13.45,1.12ZM83.73,92.64l.29-.09v-3.27l-.29.09v3.27Z"/>
    <path class="cls-1" d="M92.23,92.95v.31l-1.56.5v2.63l1.35.65v7.42l-1.24-.61-1.36.4v1.21l-1.44-.67v-7.81l1.29.61v-3.4l-1.57.5v-.44l1.57-.5v-4.31l1.4.71v3.13l.49-.15.08-.54.99.35ZM89.42,103.77l1.17-.33v-5.54l-1.17.38v5.48ZM93.14,95.7c.26.67.53,1.31.82,1.94.17-.88.32-1.77.44-2.64.12-.88.23-1.76.33-2.64l-.67.19.12-.54,1.57-.38.06-.6,1.11.31v.38l-1.92.56,1.22.71c-.11,1-.28,2.07-.5,3.2-.22,1.13-.5,2.27-.83,3.41.59,1.13,1.25,2.26,1.98,3.38l-1.11,1.96c-.3-.53-.58-1.07-.82-1.62-.25-.56-.48-1.13-.7-1.72-.35.96-.74,1.85-1.17,2.66s-.89,1.53-1.4,2.14l-.21-.25c.45-1.1.85-2.21,1.2-3.33.34-1.11.64-2.24.9-3.38-.15-.58-.29-1.15-.4-1.71s-.2-1.12-.27-1.65l.22-.38ZM91.89,96.68c.14-.64.26-1.26.35-1.85.1-.59.19-1.2.27-1.83.08-.63.16-1.29.23-1.99.07-.7.14-1.47.22-2.32l1.52.92c-.22,1.33-.54,2.62-.95,3.86-.41,1.24-.88,2.36-1.42,3.36l-.22-.17Z"/>
    <path class="cls-1" d="M106.01,100.33v.4l-1.33.42v3.44l-1.38-.73-1.54.5v2.1l-1.94,2.92-1.25-3.35,1.52.75v-1.88l-2.9.92v-.48l2.9-.92v-1.85l-3.82,1.19v-.48l3.82-1.17v-1.81l-2.9.92v-.48l2.9-.92v-1.48l-.93.29v-.48l.93-.29v-2.1l-.93.29v-.48l.93-.29v-1.5l-3.87,1.21v-.48l3.87-1.21v-2.29l1.67.87v.88l2.64-.83.08-.6,1.11.31v.4l-3.82,1.21v1.48l1.04-.35v-1.13l1.61.83v4.02l-1.39-.73-1.26.4v1.52l1.31-.42v-.85l1.61.85v1.81l.22-.08.08-.56,1.03.27ZM98.98,95.6v4l-1.61-.87v-3.96l1.61.83ZM101.76,97.33l1.04-.35v-2.11l-1.04.35v2.12ZM101.76,101.6l1.31-.4v-1.85l-1.31.42v1.83ZM101.76,103.9l1.31-.42v-1.83l-1.31.4v1.85Z"/>
    <path class="cls-1" d="M109.48,88.22v2.86l1.39-.44v-1.08l1.62.88v3.73l1.12.61v5.48l-2.1,2.33-.99-2.81,1.47.58v-4.86l-2.51.79v8.65l-1.62-.87v-7.27l-2.77.88v-.48l2.77-.88v-4.25l-2.2.69v-.48l2.2-.69v-4.29l1.62.9ZM109.48,95.81l1.39-.44v-4.25l-1.39.44v4.25ZM113.11,88.14v2.08l-1.61-.87v-2.1l1.61.88Z"/>
    <path class="cls-1" d="M146.47,61.64c2.46.04,4.7.3,4.96.37.59.15,1.02.49,1.28,1s.38,1.29.39,2.33l.04,4.31h.64s-.04-4.32-.04-4.32c-.01-1.42.23-2.37.74-2.87.52-.48,4.84-.78,6.51-.79v-.66c-1.68.01-6-.18-6.52-.67-.51-.49-.77-1.44-.78-2.87l-.04-32.43h-.64s.04,32.44.04,32.44c.01,1.43-.23,2.39-.74,2.89-.25.24-2.93.5-5.83.61"/>
    <path class="cls-1" d="M11.95,97.78c2.88.05,63.87-.59,65.01.43.53.48,1.2.58,1.5,1.17s.45,1.51.46,2.73l.04,5.05h.75s-.04-5.06-.04-5.06c-.01-1.66.27-2.78.86-3.36.6-.57,5.67-.91,7.62-.93v-.77c-1.96.02-7.03-.22-7.64-.78-.6-.57-.9-1.69-.92-3.37l.06-1.82h-.75s-.06,1.83-.06,1.83c.01,1.68-.18,2.91-.86,3.38-3.19,2.2-62.62.59-66.02.72"/>
    <path class="cls-1" d="M0,97.56c2.46.04,4.7.3,4.96.37.59.15,1.02.49,1.28,1s.38,1.29.39,2.33l.04,4.31h.64s-.04-4.32-.04-4.32c-.01-1.42.23-2.37.74-2.87.52-.48,4.84-.78,6.51-.79v-.66c-1.68.01-6-.18-6.52-.67-.51-.49-.77-1.44-.78-2.87l-.04-25.76h-.64s.04,25.77.04,25.77c.01,1.43-.23,2.39-.74,2.89-.25.24-2.93.5-5.83.61"/>
  </g>
</svg>