<?xml version="1.0" standalone="no"?><!DOCTYPE svg PUBLIC "-//W3C//DTD SVG 1.1//EN" "http://www.w3.org/Graphics/SVG/1.1/DTD/svg11.dtd"><svg t="1754971345232" class="icon" viewBox="0 0 1024 1024" version="1.1" xmlns="http://www.w3.org/2000/svg" p-id="7200" xmlns:xlink="http://www.w3.org/1999/xlink" width="200" height="200"><path d="M865.457493 648.964267l57.140054-57.084587c10.0096-9.977173 26.20928-9.974613 36.215466 0.005973l38.9888 38.97856c9.99936 9.995093 10.001067 26.20416 0.00512 36.202667h-0.001706l-113.467734 113.4848 132.292267 132.30592c9.99936 9.9968 9.998507 26.205867 0 36.202667h-0.00256l-38.9888 38.97856c-10.001067 9.98912-26.20672 9.98912-36.20864 0l-132.343467-132.309334-113.517226 113.488214c-10.00192 9.98912-26.207573 9.98912-36.20864 0l-38.9888-38.97856c-9.9968-9.997653-9.99936-26.205013-0.006827-36.20608l57.099947-57.124694L48.657067 208.264533 48.444587 20.48l188.578133 0.159573 628.434773 628.324694z" p-id="7201" fill="#e6e6e6"></path><path d="M274.683733 533.280427l-115.703466 115.68384-57.1392-57.084587c-10.0096-9.977173-26.20928-9.974613-36.215467 0.005973l-38.9888 38.97856c-9.99936 9.995093-10.001067 26.20416-0.00512 36.202667l113.470293 113.4848L7.808 912.8576c-9.998507 9.9968-9.997653 26.205867 0 36.202667l38.992213 38.97856c10.001067 9.98912 26.20672 9.98912 36.20864 0l132.343467-132.309334 113.517227 113.488214c10.00192 9.98912 26.207573 9.98912 36.20864 0l38.9888-38.97856c9.9968-9.997653 9.99936-26.205013 0.006826-36.20608l-57.099946-57.124694 115.684693-115.65312-187.974827-187.974826zM975.994027 20.48l-188.578134 0.159573-222.472533 222.431574 187.987627 187.986773 222.85056-222.793387 0.21248-187.784533z" p-id="7202" fill="#e6e6e6"></path></svg>